<svg width="210" height="102" viewBox="0 0 210 102" fill="none" xmlns="http://www.w3.org/2000/svg">
<path fill-rule="evenodd" clip-rule="evenodd" d="M33.0996 31.4141C41.9286 55.6535 67.2201 66.1534 108.974 62.9139C171.605 58.0545 171.643 40.6132 178.662 32.6247C180.52 30.51 181.053 31.8455 179.485 34.9764C175.131 43.6723 154.406 67.3391 101.208 67.1537C57.8048 67.0024 35.1018 55.0892 33.0996 31.4141Z" fill="#EFF2F7"/>
<path fill-rule="evenodd" clip-rule="evenodd" d="M19.7734 32.1738C29.7364 61.081 59.4907 74.0487 109.036 71.077C183.355 66.6193 183.759 45.952 192.241 36.6315C194.486 34.1641 195.09 35.7578 193.167 39.4353C187.829 49.6496 162.783 77.2644 99.7465 75.9399C48.316 74.8592 21.6583 60.2705 19.7734 32.1738Z" fill="#EFF2F7"/>
<path fill-rule="evenodd" clip-rule="evenodd" d="M10.7871 33.0312C19.5072 65.7907 51.204 82.4373 105.878 82.971C187.888 83.7715 189.925 60.9308 199.964 51.2703C202.622 48.713 203.162 50.5232 200.766 54.4447C194.112 65.3367 164.461 93.965 95.2945 87.6359C38.8619 82.4721 10.6928 64.2705 10.7871 33.0312Z" fill="#EFF2F7"/>
<path fill-rule="evenodd" clip-rule="evenodd" d="M98.8647 52.0269C130.301 52.0269 154.597 43.364 160.91 31.8323C161.857 30.1033 138.41 28.8149 138.41 27.0403C138.41 25.1177 163.734 21.6033 162.628 19.9247C155.903 9.71989 129.908 4.10742 98.8647 4.10742C62.7152 4.10742 33.4102 11.7182 33.4102 25.3289C33.4102 38.9396 62.7152 52.0269 98.8647 52.0269Z" fill="#009945"/>
<path fill-rule="evenodd" clip-rule="evenodd" d="M98.8647 49.2886C128.284 49.2886 153.17 41.9809 161.417 31.9237C163.304 29.6229 141.137 28.8897 141.137 26.3557C141.137 23.5834 163.103 19.2067 160.862 16.7197C152.097 6.99664 127.651 0 98.8647 0C62.7152 0 33.4102 11.0336 33.4102 24.6443C33.4102 38.255 62.7152 49.2886 98.8647 49.2886Z" fill="#00CB5B"/>
</svg>
